<?xml version="1.0" standalone="no"?>
<!DOCTYPE svg PUBLIC "-//W3C//DTD SVG 20010904//EN"
 "http://www.w3.org/TR/2001/REC-SVG-20010904/DTD/svg10.dtd">
<svg version="1.0" xmlns="http://www.w3.org/2000/svg"
 width="637.000000pt" height="637.000000pt" viewBox="0 0 637.000000 637.000000"
 preserveAspectRatio="xMidYMid meet">
<metadata>
Created by potrace 1.11, written by Peter Selinger 2001-2013
</metadata>
<g transform="translate(0.000000,637.000000) scale(0.100000,-0.100000)"
fill="#000000" stroke="none">
<path d="M0 3185 l0 -3185 3185 0 3185 0 0 3185 0 3185 -3185 0 -3185 0 0
-3185z m5130 2718 c0 -4 -34 -206 -75 -450 -41 -243 -75 -447 -75 -453 0 -7
-192 -10 -600 -10 -453 0 -600 3 -600 12 0 6 34 210 75 453 41 243 75 445 75
449 0 3 270 6 600 6 330 0 600 -3 600 -7z m-3880 -1200 c-2 -26 176 -1553 180
-1553 3 0 68 157 144 348 77 191 218 542 314 780 l174 432 429 0 c364 0 429
-2 429 -14 0 -8 31 -350 70 -760 38 -409 70 -754 70 -765 0 -31 14 -25 28 12
6 17 152 369 324 780 l313 748 720 -4 c689 -3 724 -4 813 -24 192 -44 326
-100 472 -197 315 -211 476 -481 506 -851 l6 -80 -458 -53 c-253 -29 -476 -56
-496 -59 l-38 -6 0 59 c-1 178 -76 336 -186 389 -47 23 -172 32 -230 16 l-40
-11 -117 -697 c-64 -384 -117 -707 -117 -719 0 -38 68 -59 190 -59 99 0 110 2
172 33 110 54 223 196 268 335 10 33 16 38 34 33 11 -3 208 -51 436 -107 228
-56 416 -103 418 -105 2 -1 -21 -53 -50 -116 -134 -280 -298 -486 -497 -620
-87 -59 -263 -145 -375 -183 -372 -126 -821 -101 -1147 63 -213 107 -422 303
-528 494 -14 26 -29 48 -32 48 -3 0 -72 -153 -154 -340 l-149 -340 -416 0
-416 0 -77 858 c-43 471 -78 869 -77 885 0 15 -4 27 -9 27 -5 0 -54 -114 -109
-252 -54 -139 -211 -538 -348 -885 l-249 -633 -400 0 -400 0 -214 1348 c-117
741 -228 1438 -246 1550 l-32 202 549 0 c301 0 548 -3 548 -7z"/>
</g>
</svg>
